<svg width="189" height="189" viewBox="0 0 189 189" fill="none" xmlns="http://www.w3.org/2000/svg">
	<g clip-path="url(#clip0_49_68)">
		<rect width="189" height="189" fill="#F9F9F9" />
		<path
			d="M126.491 80.728L121.499 91.288H84.8273L123.995 19H166.235L205.307 91.288H168.635L163.739 80.728H126.491ZM145.115 40.792L136.091 60.184H154.139L145.115 40.792Z"
			fill="#181D27"
		/>
		<path
			d="M54.5063 55.096V19H87.6263V55.096C87.6263 78.904 74.0903 92.632 40.9703 92.632H30.2183C-1.17374 92.632 -16.4377 84.088 -16.4377 50.584H16.6823C16.6823 65.176 21.8663 69.688 35.5943 70.072C45.1943 69.784 54.5063 67.864 54.5063 55.096Z"
			fill="#181D27"
		/>
		<path
			d="M230.87 150.24V169.92H132.278V97.632H230.87V117.312H165.398V124.608H224.63V142.944H165.398V150.24H230.87Z"
			fill="#181D27"
		/>
		<path
			d="M-9.36 169.92L-42 97.632H-3.312L10.224 135.456L27.792 97.632H55.728L73.296 135.456L86.736 97.632H125.52L92.88 169.92H59.28L41.712 136.8L24.24 169.92H-9.36Z"
			fill="#181D27"
		/>
	</g>
	<defs>
		<clipPath id="clip0_49_68">
			<rect width="189" height="189" fill="white" />
		</clipPath>
	</defs>
</svg>
